{"title":"John Legend - Love in the Future (Deluxe Edition) - 2013 [Flac]","uid":8875336,"size":422424207,"categoryP":"audio","categoryS":"flac","magnet":"?xt=urn:btih:8cd2dc540b882f3955e6967836cfa15572db3f92&amp;dn=John+Legend+-+Love+in+the+Future+%28Deluxe+Edition%29+-+2013+%5BFlac%5D&amp;tr=udp%3A%2F%2Ftracker.openbittorrent.com%3A80&amp;tr=udp%3A%2F%2Fopen.demonii.com%3A1337&amp;tr=udp%3A%2F%2Ftracker.coppersurfer.tk%3A6969&amp;tr=udp%3A%2F%2Fexodus.desync.com%3A6969","seeders":5,"leechers":0,"uploader":"Chuck.ie","files":-1,"time":1378180540,"description":"Exact Audio Copy V1.0 beta 3 from 29. August 2011\n\nEAC extraction logfile from 2. September 2013, 21:21\n\nJohn Legend / Love in the Future (Deluxe Edition)\n\nUsed drive  : HL-DT-STDVDRAM GT34N   Adapter: 0  ID: 0\n\nRead mode               : Secure\nUtilize accurate stream : Yes\nDefeat audio cache      : Yes\nMake use of C2 pointers : No\n\nRead offset correction                      : 103\nOverread into Lead-In and Lead-Out          : No\nFill up missing offset samples with silence : Yes\nDelete leading and trailing silent blocks   : No\nNull samples used in CRC calculations       : Yes\nUsed interface                              : Native Win32 interface for Win NT &amp; 2000\nGap handling                                : Appended to previous track\n\nUsed output format              : User Defined Encoder\nSelected bitrate                : 1024 kBit/s\nQuality                         : High\nAdd ID3 tag                     : No\nCommand line compressor         : C:Program Files (x86)Exact Audio CopyFlacflac.exe\nAdditional command line options : -8 -V -T &quot;ARTIST=%artist%&quot; -T &quot;TITLE=%title%&quot; -T &quot;ALBUM=%albumtitle%&quot; -T &quot;DATE=%year%&quot; -T &quot;TRACKNUMBER=%tracknr%&quot; -T &quot;GENRE=%genre%&quot; -T &quot;PERFORMER=%albuminterpret%&quot; -T &quot;COMPOSER=%composer%&quot; %haslyrics%--tag-from-file=LYRICS=&quot;%lyricsfile%&quot;%haslyrics% -T &quot;ALBUMARTIST=%albumartist%&quot; -T &quot;DISCNUMBER=%cdnumber%&quot; -T &quot;TOTALDISCS=%totalcds%&quot; -T &quot;TOTALTRACKS=%numtracks%&quot; -T &quot;COMMENT=%comment%&quot; %source% -o %dest%\n\n\nTOC of the extracted CD\n\n     Track |   Start  |  Length  | Start sector | End sector \n    ---------------------------------------------------------\n        1  |  0:00.00 |  0:40.32 |         0    |     3031   \n        2  |  0:40.32 |  3:25.04 |      3032    |    18410   \n        3  |  4:05.36 |  3:06.60 |     18411    |    32420   \n        4  |  7:12.21 |  4:00.26 |     32421    |    50446   \n        5  | 11:12.47 |  4:52.48 |     50447    |    72394   \n        6  | 16:05.20 |  4:29.42 |     72395    |    92611   \n        7  | 20:34.62 |  2:38.07 |     92612    |   104468   \n        8  | 23:12.69 |  3:09.22 |    104469    |   118665   \n        9  | 26:22.16 |  3:32.74 |    118666    |   134639   \n       10  | 29:55.15 |  0:50.59 |    134640    |   138448   \n       11  | 30:45.74 |  2:38.45 |    138449    |   150343   \n       12  | 33:24.44 |  3:06.10 |    150344    |   164303   \n       13  | 36:30.54 |  1:24.36 |    164304    |   170639   \n       14  | 37:55.15 |  4:12.49 |    170640    |   189588   \n       15  | 42:07.64 |  3:17.48 |    189589    |   204411   \n       16  | 45:25.37 |  3:45.45 |    204412    |   221331   \n       17  | 49:11.07 |  4:46.30 |    221332    |   242811   \n       18  | 53:57.37 |  4:02.58 |    242812    |   261019   \n       19  | 58:00.20 |  4:18.05 |    261020    |   280374   \n       20  | 62:18.25 |  5:12.26 |    280375    |   303800 ","torrent":{"xt":"urn:btih:8cd2dc540b882f3955e6967836cfa15572db3f92","amp;dn":"John+Legend+-+Love+in+the+Future+%28Deluxe+Edition%29+-+2013+%5BFlac%5D","amp;tr":["udp%3A%2F%2Ftracker.openbittorrent.com%3A80","udp%3A%2F%2Fopen.demonii.com%3A1337","udp%3A%2F%2Ftracker.coppersurfer.tk%3A6969","udp%3A%2F%2Fexodus.desync.com%3A6969"],"infoHash":"8cd2dc540b882f3955e6967836cfa15572db3f92","infoHashBuffer":{"type":"Buffer","data":[140,210,220,84,11,136,47,57,85,230,150,120,54,207,161,85,114,219,63,146]},"announce":[],"urlList":[]}}